<?xml version="1.0" encoding="UTF-8"?>
<svg width="1081" height="1080" viewBox="0 0 1081 1080" fill="none" xmlns="http://www.w3.org/2000/svg">
<rect x="0.797852" width="1080" height="1080" rx="52" fill="url(#paint0_linear_745_4643)"/>
<path d="M772.268 321.696L309.263 377.499C303.549 378.207 298.939 374.795 298.939 369.904V326.459C298.939 321.567 303.549 317.062 309.263 316.418L772.268 260.616C777.982 259.908 782.591 263.319 782.591 268.211V311.656C782.591 316.547 777.982 321.053 772.268 321.696Z" fill="white"/>
<path d="M772.333 419.207L309.328 475.01C303.614 475.718 299.004 472.307 299.004 467.415V423.97C299.004 419.079 303.614 414.573 309.328 413.93L772.333 358.127C778.047 357.419 782.657 360.83 782.657 365.722V409.167C782.657 414.058 778.047 418.564 772.333 419.207Z" fill="white"/>
<path d="M651.309 238.733L430.163 265.379C424.449 266.087 419.839 262.676 419.839 257.784V214.339C419.839 209.448 424.449 204.942 430.163 204.299L651.309 177.653C657.023 176.945 661.633 180.356 661.633 185.247V228.692C661.633 233.584 657.023 238.089 651.309 238.733Z" fill="white"/>
<path d="M500.607 625.167C467.818 630.187 435.029 634.113 404.383 637.782C353.349 643.961 326.469 647.694 299.069 652.585C300.108 632.182 300.692 601.996 300.627 582.752C300.627 561.448 300.043 540.208 299.004 512.79L782.657 454.477C781.033 479.128 781.098 501.977 781.098 522.251C781.098 548.253 781.098 576.83 782.202 590.733C742.466 613.195 590.923 720.359 573.717 730.722L574.236 734.326C604.298 728.598 634.425 724.478 666.694 720.552C716.689 714.502 749.478 710.061 782.202 705.556C781.163 726.474 781.163 756.595 781.163 775.325C781.163 794.054 781.163 820.572 782.267 844.322L300.238 902.441C300.757 880.043 301.277 859.704 301.277 839.43C301.277 816.067 301.277 780.731 299.653 761.165C336.208 739.604 478.012 639.327 501.127 627.741L500.607 625.231V625.167Z" fill="white"/>
<defs>
<linearGradient id="paint0_linear_745_4643" x1="540.798" y1="0" x2="540.798" y2="626.566" gradientUnits="userSpaceOnUse">
<stop stop-color="#EF8028"/>
<stop offset="1" stop-color="#EE430B"/>
</linearGradient>
</defs>
</svg>